<svg width="192" height="192" viewBox="0 0 192 192" fill="none" xmlns="http://www.w3.org/2000/svg">
<path d="M96 0L179.138 48V144L96 192L12.8616 144V48L96 0Z" fill="#0E1148"/>
<line y1="-12" x2="96" y2="-12" transform="matrix(-0.866025 0.5 -2.20305e-08 -1 179.139 86.0001)" stroke="#898DD6" stroke-width="24"/>
<line y1="-12" x2="96" y2="-12" transform="matrix(5.98857e-08 1 -0.866025 0.5 96 96.0001)" stroke="#898DD6" stroke-width="24"/>
<line y1="-12" x2="96" y2="-12" transform="matrix(5.98857e-08 1 -0.866025 0.5 158.354 60.0001)" stroke="#898DD6" stroke-width="24"/>
<line y1="-12" x2="96" y2="-12" transform="matrix(1.58247e-08 1 -0.866025 -0.5 13 48)" stroke="#5256A7" stroke-width="24"/>
<line y1="-12" x2="96" y2="-12" transform="matrix(-0.866025 -0.5 2.20305e-08 -1 96.1387 134)" stroke="#5256A7" stroke-width="24"/>
<line y1="-12" x2="96" y2="-12" transform="matrix(-0.866025 -0.5 2.20305e-08 -1 96.1387 96)" stroke="#5256A7" stroke-width="24"/>
<line y1="-12" x2="96" y2="-12" transform="matrix(-0.866025 -0.5 2.20305e-08 -1 96.1387 168)" stroke="#5256A7" stroke-width="24"/>
<line y1="-12" x2="96" y2="-12" transform="matrix(-0.866025 0.5 -0.866025 -0.5 96.1387 0)" stroke="#D2D4FF" stroke-width="24"/>
<line y1="-12" x2="96" y2="-12" transform="matrix(-0.866025 -0.5 0.866025 -0.5 179.277 48)" stroke="#D2D4FF" stroke-width="24"/>
<line y1="-12" x2="96" y2="-12" transform="matrix(-0.866025 -0.5 0.866025 -0.5 116.924 84)" stroke="#D2D4FF" stroke-width="24"/>
</svg>
